<?xml version="1.0" encoding="utf-8"?>
<!-- Generator: Adobe Illustrator 16.0.0, SVG Export Plug-In . SVG Version: 6.00 Build 0)  -->
<!DOCTYPE svg PUBLIC "-//W3C//DTD SVG 1.1//EN" "http://www.w3.org/Graphics/SVG/1.1/DTD/svg11.dtd">
<svg version="1.1" id="Layer_1" xmlns="http://www.w3.org/2000/svg" xmlns:xlink="http://www.w3.org/1999/xlink" x="0px" y="0px"
	 width="190px" height="30px" viewBox="0 0 190 30" enable-background="new 0 0 190 30" xml:space="preserve">
<g>
	<path fill="#FFFFFF" d="M4.113,24.66V5.34c1.736-0.168,4.181-0.252,7.336-0.252c2.707,0,4.559,0.438,5.558,1.316
		c0.999,0.877,1.498,2.539,1.498,4.984c0,2.446-0.472,4.112-1.414,4.998c-0.943,0.887-2.637,1.33-5.082,1.33
		c-1.232,0-2.446-0.075-3.64-0.224v7.168H4.113z M8.369,14.44h2.996c1.101-0.018,1.853-0.233,2.254-0.644s0.602-1.213,0.602-2.408
		c0-1.194-0.201-1.997-0.602-2.408c-0.401-0.41-1.153-0.616-2.254-0.616L8.369,8.392V14.44z"/>
	<path fill="#FFFFFF" d="M36.537,24.66h-4.508l-1.456-5.908c-0.187-0.616-0.434-1.04-0.742-1.274c-0.308-0.233-0.751-0.35-1.33-0.35
		L25.505,17.1v7.56h-4.2V5.34c1.736-0.168,4.19-0.252,7.364-0.252c2.594,0,4.433,0.411,5.516,1.232s1.624,2.314,1.624,4.48
		c0,1.418-0.285,2.529-0.854,3.332s-1.517,1.288-2.842,1.456v0.14c1.474,0.336,2.389,1.307,2.744,2.912L36.537,24.66z
		 M25.505,13.824h3.08c1.12,0,1.885-0.191,2.296-0.574c0.41-0.382,0.616-1.106,0.616-2.17s-0.201-1.782-0.602-2.156
		s-1.171-0.56-2.31-0.56l-3.08,0.028V13.824z"/>
	<path fill="#FFFFFF" d="M40.415,7.118c1.204-1.428,3.355-2.142,6.454-2.142c3.098,0,5.254,0.714,6.468,2.142s1.82,4.056,1.82,7.882
		c0,3.827-0.606,6.454-1.82,7.882c-1.213,1.428-3.37,2.142-6.468,2.142c-3.099,0-5.25-0.714-6.454-2.142
		c-1.204-1.428-1.806-4.055-1.806-7.882C38.608,11.174,39.21,8.546,40.415,7.118z M49.851,9.792
		c-0.532-0.914-1.526-1.372-2.982-1.372s-2.45,0.458-2.982,1.372c-0.532,0.915-0.798,2.651-0.798,5.208
		c0,2.558,0.266,4.294,0.798,5.208c0.532,0.915,1.526,1.372,2.982,1.372s2.45-0.457,2.982-1.372c0.532-0.914,0.798-2.65,0.798-5.208
		C50.648,12.443,50.382,10.707,49.851,9.792z"/>
	<path fill="#FFFFFF" d="M73.021,13.516V24.66h-3.136l-0.392-1.932c-1.494,1.531-3.351,2.296-5.572,2.296
		c-2.166,0-3.734-0.793-4.704-2.38c-0.971-1.586-1.456-4.153-1.456-7.7c0-3.771,0.639-6.375,1.918-7.812
		c1.278-1.438,3.523-2.156,6.734-2.156c2.333,0,4.312,0.224,5.936,0.672l-0.336,3.136c-2.109-0.093-3.93-0.14-5.46-0.14
		c-0.859,0-1.536,0.07-2.03,0.21c-0.495,0.14-0.929,0.444-1.302,0.91c-0.374,0.467-0.625,1.116-0.756,1.946
		c-0.131,0.831-0.196,1.956-0.196,3.374c0,2.408,0.224,4.06,0.672,4.956c0.448,0.896,1.278,1.344,2.492,1.344
		c1.12,0,2.277-0.327,3.472-0.98v-6.888H73.021z"/>
	<path fill="#FFFFFF" d="M92.76,5.34v17.78c0,1.027-0.504,1.54-1.512,1.54h-2.66c-0.43,0-0.766-0.098-1.008-0.294
		c-0.243-0.196-0.476-0.518-0.7-0.966l-5.068-10.304c-0.635-1.362-1.027-2.361-1.176-2.996h-0.308c0.13,0.934,0.196,1.96,0.196,3.08
		v11.48h-4.06V6.88c0-1.026,0.513-1.54,1.54-1.54h2.604c0.429,0,0.765,0.098,1.008,0.294c0.243,0.196,0.476,0.518,0.7,0.966
		l4.9,9.996c0.466,0.934,0.933,1.97,1.4,3.108h0.28c-0.112-1.456-0.168-2.538-0.168-3.248V5.34H92.76z"/>
	<path fill="#FFFFFF" d="M97.842,7.118c1.204-1.428,3.355-2.142,6.454-2.142c3.098,0,5.254,0.714,6.468,2.142s1.82,4.056,1.82,7.882
		c0,3.827-0.606,6.454-1.82,7.882c-1.213,1.428-3.37,2.142-6.468,2.142c-3.099,0-5.25-0.714-6.454-2.142
		c-1.204-1.428-1.806-4.055-1.806-7.882C96.036,11.174,96.638,8.546,97.842,7.118z M107.278,9.792
		c-0.532-0.914-1.526-1.372-2.982-1.372s-2.45,0.458-2.982,1.372c-0.532,0.915-0.798,2.651-0.798,5.208
		c0,2.558,0.266,4.294,0.798,5.208c0.532,0.915,1.526,1.372,2.982,1.372s2.45-0.457,2.982-1.372c0.532-0.914,0.798-2.65,0.798-5.208
		C108.076,12.443,107.81,10.707,107.278,9.792z"/>
	<path fill="#FFFFFF" d="M128.963,21.384v3.276h-14.112v-3.276l9.184-12.768h-8.96V5.34h13.664v3.276l-9.184,12.768H128.963z"/>
	<path fill="#FFFFFF" d="M142.292,5.34v14.42c0,0.504,0.116,0.868,0.35,1.092s0.621,0.336,1.162,0.336h6.636l0.196,3.248
		c-1.886,0.206-4.611,0.308-8.176,0.308c-1.494,0-2.604-0.373-3.332-1.12c-0.728-0.746-1.092-1.745-1.092-2.996V5.34H142.292z"/>
	<path fill="#FFFFFF" d="M163.459,19.592h-6.636l-1.4,5.068h-4.368l5.572-18.2c0.074-0.336,0.252-0.606,0.532-0.812
		c0.28-0.205,0.597-0.308,0.952-0.308h4.032c0.802,0,1.297,0.374,1.484,1.12l5.572,18.2h-4.34L163.459,19.592z M162.535,16.288
		l-1.624-5.908c-0.224-0.934-0.354-1.54-0.392-1.82h-0.756c-0.038,0.187-0.103,0.486-0.196,0.896
		c-0.094,0.411-0.168,0.719-0.224,0.924l-1.624,5.908H162.535z"/>
	<path fill="#FFFFFF" d="M181.883,14.58v0.112c1.438,0.13,2.464,0.621,3.08,1.47c0.616,0.85,0.924,2.077,0.924,3.682
		c0,1.941-0.495,3.267-1.484,3.976s-2.679,1.064-5.068,1.064c-3.584,0-6.3-0.075-8.148-0.224V5.34
		c1.661-0.149,4.079-0.224,7.252-0.224c2.576,0,4.358,0.35,5.348,1.05c0.989,0.7,1.484,2.03,1.484,3.99
		c0,1.4-0.266,2.459-0.798,3.178C183.941,14.053,183.078,14.468,181.883,14.58z M175.359,13.236h3.108
		c1.045,0,1.759-0.168,2.142-0.504c0.382-0.336,0.574-0.998,0.574-1.988c0-0.97-0.206-1.614-0.616-1.932
		c-0.411-0.317-1.186-0.476-2.324-0.476l-2.884-0.028V13.236z M175.359,21.664h3.248c1.176,0,1.969-0.172,2.38-0.518
		c0.411-0.345,0.616-1.05,0.616-2.114c0-1.157-0.215-1.937-0.644-2.338c-0.43-0.401-1.251-0.611-2.464-0.63h-3.136V21.664z"/>
</g>
</svg>
